<?xml version="1.0" encoding="UTF-8"?>
<svg xmlns="http://www.w3.org/2000/svg" width="219" height="51" viewBox="0 0 219 51" fill="none">
  <g clip-path="url(#clip0_2504_303)">
    <g clip-path="url(#clip1_2504_303)">
      <path d="M23.1719 15.2334C24.3843 16.449 25.5799 17.6447 26.7872 18.855C27.995 17.6466 29.183 16.4549 30.3856 15.2514C30.2004 15.1596 30.0352 15.0786 29.8771 14.9967C29.3699 14.7289 28.9329 14.3708 28.5545 13.9352C27.918 13.2037 27.5478 12.3584 27.4338 11.3989C27.3311 10.5595 27.4465 9.74887 27.7829 8.97837C28.6379 7.03679 30.6354 5.89962 32.777 6.22428C34.0159 6.41243 35.0326 7.01721 35.7961 8.02044C36.6373 9.12038 36.9298 10.3603 36.6943 11.7205C36.5191 12.7343 36.0408 13.5858 35.3014 14.3007C34.7448 14.8403 34.204 15.3926 33.6583 15.9397C32.9963 16.601 32.3372 17.2634 31.6782 17.9259C31.0254 18.5804 30.3727 19.2349 29.721 19.8864C29.4446 20.1603 29.1701 20.4384 28.8937 20.7123C28.8563 20.7498 28.8219 20.7883 28.7708 20.8447C29.6628 21.738 30.5468 22.6251 31.4467 23.5248C31.5038 23.4707 31.5535 23.4275 31.6013 23.3802C32.5638 22.4162 33.5233 21.4511 34.4857 20.4871C35.6998 19.2708 36.9039 18.044 38.1368 16.8414C39.266 15.7373 40.6415 15.3205 42.2008 15.5852C44.7239 16.0156 46.4244 18.3825 46.0502 20.92C45.8845 22.0397 45.3744 22.9887 44.5187 23.7326C43.3937 24.712 42.0815 25.0667 40.6118 24.8281C39.771 24.6904 39.026 24.3251 38.3751 23.7657C37.8204 23.2894 37.3958 22.7175 37.1064 22.0451C37.0891 22.008 37.0688 21.9699 37.0369 21.907C35.8324 23.1063 34.6473 24.2992 33.4396 25.5076C33.7307 25.8258 34.0367 26.112 34.3302 26.4141C34.6328 26.7195 34.9364 27.0219 35.24 27.3243C35.5406 27.6255 35.8393 27.9227 36.1399 28.224C36.4386 28.5211 36.7362 28.8213 37.0527 29.1352C37.0868 29.0693 37.1152 29.0285 37.1356 28.9814C37.4262 28.2998 37.8591 27.7251 38.4263 27.2507C39.2945 26.5285 40.2958 26.1656 41.4207 26.1686C42.5831 26.1718 43.6259 26.5439 44.4962 27.327C45.8385 28.5322 46.3483 30.0394 46.0267 31.8081C45.8257 32.9217 45.2528 33.8272 44.3738 34.5318C43.2281 35.4457 41.9174 35.7396 40.4832 35.4593C39.7691 35.3203 39.1138 35.0186 38.5528 34.5502C38.2024 34.2546 37.8782 33.9242 37.5488 33.5987C36.7674 32.8243 35.9953 32.0431 35.219 31.2638C34.4299 30.473 33.6438 29.6833 32.8537 28.8954C32.4156 28.4551 31.9746 28.0136 31.5325 27.5751C31.5097 27.5531 31.4858 27.5342 31.4461 27.5025C30.5647 28.3837 29.6875 29.2629 28.7946 30.1569C28.841 30.208 28.8794 30.2528 28.9249 30.2968C29.9464 31.3229 30.9719 32.3472 31.9963 33.3744C33.0435 34.4237 34.0877 35.4718 35.1349 36.521C35.3277 36.7145 35.5247 36.9062 35.7019 37.1144C36.4573 37.9987 36.8341 39.0239 36.8418 40.1832C36.8461 40.7852 36.7384 41.3667 36.5096 41.9242C35.6901 43.947 33.6442 45.1142 31.5153 44.8112C30.6296 44.6844 29.8272 44.3458 29.1526 43.7573C27.8274 42.5993 27.275 41.1345 27.5291 39.3922C27.6848 38.3098 28.1999 37.4035 29.0046 36.6683C29.3863 36.3203 29.8168 36.0449 30.2931 35.8409C30.3289 35.8267 30.3617 35.8114 30.3956 35.7932C30.4038 35.7893 30.4112 35.7784 30.432 35.7587C29.2315 34.5577 28.032 33.3537 26.8186 32.1412C25.615 33.3477 24.4228 34.5413 23.2161 35.7467C23.3353 35.8041 23.4304 35.8526 23.5266 35.8981C24.1956 36.2184 24.7549 36.6726 25.2116 37.2597C25.7764 37.9819 26.0986 38.7994 26.1865 39.7084C26.2713 40.5788 26.1189 41.4065 25.7467 42.1912C25.4911 42.7286 25.1409 43.1973 24.7003 43.5952C23.6781 44.5168 22.4739 44.9316 21.1048 44.8015C19.851 44.6829 18.7972 44.143 17.976 43.1767C17.0209 42.052 16.6741 40.7547 16.9056 39.3111C17.0639 38.3252 17.5176 37.4851 18.2263 36.7795C19.3789 35.6294 20.5265 34.474 21.6802 33.3208C22.6957 32.3046 23.7111 31.2884 24.7266 30.2722C24.7599 30.2366 24.7921 30.2041 24.8391 30.1497C23.9513 29.2544 23.0612 28.3651 22.1662 27.4707C22.0999 27.5316 22.045 27.5797 21.995 27.633C20.6583 28.9716 19.3258 30.3082 17.9891 31.6467C17.2282 32.4117 16.4624 33.1714 15.7045 33.9375C15.4081 34.2382 15.103 34.5255 14.7417 34.7513C13.7224 35.3908 12.613 35.6186 11.4242 35.4147C10.3263 35.2236 9.39761 34.7057 8.66886 33.8517C7.65063 32.6562 7.31298 31.2769 7.62862 29.7516C7.83044 28.768 8.32737 27.9404 9.08166 27.2787C10.2741 26.2353 11.657 25.8929 13.2008 26.2099C14.1506 26.4046 14.9525 26.8863 15.618 27.5943C15.9922 27.9942 16.2871 28.4434 16.5046 28.9463C16.5181 28.9751 16.5316 29.0039 16.545 29.0327C16.5489 29.041 16.5598 29.0484 16.5667 29.0577C16.6673 29.0059 20.0459 25.6424 20.1637 25.4673C18.9712 24.2726 17.7767 23.0739 16.5663 21.8624C16.5376 21.9133 16.5155 21.9462 16.4995 21.9812C15.8577 23.4176 14.7807 24.3396 13.2542 24.7113C12.2071 24.9653 11.1772 24.8504 10.1985 24.3858C8.29633 23.4836 7.2345 21.4738 7.54191 19.4235C7.706 18.3271 8.1893 17.3956 9.00721 16.6617C10.1568 15.6333 11.5091 15.2523 13.0378 15.5263C13.9994 15.698 14.817 16.1548 15.5093 16.8453C16.4487 17.7868 17.3881 18.7283 18.3275 19.6697C19.1937 20.54 20.064 21.4084 20.9302 22.2787C21.301 22.6501 21.6749 23.0225 22.0457 23.3939C22.0753 23.4252 22.1112 23.4486 22.1608 23.4907C23.0433 22.6066 23.9247 21.7254 24.8164 20.8344C24.7245 20.7393 24.6466 20.6528 24.5635 20.5711C23.8367 19.844 23.1079 19.1128 22.3811 18.3858C21.672 17.6755 20.963 16.9652 20.2529 16.2579C19.714 15.7191 19.1791 15.1784 18.6402 14.6396C18.4572 14.4565 18.2721 14.2795 18.0943 14.0915C17.1935 13.1471 16.7502 12.0225 16.7754 10.7251C16.8016 9.38706 17.3112 8.25023 18.3013 7.36115C19.4437 6.33351 20.7969 5.95971 22.3154 6.23333C23.3627 6.42287 24.2522 6.92642 24.9518 7.72881C25.9667 8.89584 26.3393 10.2538 26.0543 11.7699C25.8454 12.8771 25.2846 13.7871 24.4124 14.501C24.0783 14.7742 23.7131 14.9917 23.3207 15.1617C23.2838 15.1789 23.2458 15.1991 23.1791 15.2326L23.1719 15.2334ZM26.7951 22.8188C25.9022 23.7128 25.0179 24.5929 24.1311 25.4891C25.0329 26.3929 25.918 27.2769 26.8119 28.1744C27.7099 27.2755 28.5882 26.3933 29.4759 25.5042C28.576 24.6045 27.695 23.7185 26.7951 22.8188Z" fill="#fff"></path>
    </g>
    <path d="M155.053 37.2877C155.041 38.4068 154.883 39.3414 154.591 40.0793C154.312 40.8172 153.947 41.4014 153.497 41.8257C153.059 42.2376 152.579 42.5328 152.051 42.7111C151.528 42.871 150.999 42.9571 150.476 42.9571C149.528 42.9571 148.696 42.748 147.984 42.336C147.267 41.9056 146.714 41.3091 146.319 40.5405C145.942 39.7719 145.748 38.868 145.748 37.8165V30.9111H147.741V37.3307C147.741 38.5544 148.045 39.5075 148.659 40.1839C149.285 40.848 150.093 41.18 151.09 41.18C151.747 41.18 152.33 41.0017 152.841 40.6512C153.363 40.2945 153.765 39.8088 154.044 39.1877C154.336 38.5544 154.482 37.8165 154.482 36.9741L155.053 37.2815V37.2877ZM154.488 43.2399V30.9111H156.5V43.2399C156.5 44.0639 156.378 44.8264 156.129 45.5212C155.88 46.2161 155.509 46.8125 155.01 47.3167C154.53 47.8332 153.941 48.2329 153.236 48.5096C152.549 48.8048 151.765 48.9524 150.871 48.9524C149.978 48.9524 149.145 48.7986 148.398 48.485C147.65 48.1714 147.012 47.7164 146.471 47.1138C145.948 46.5112 145.529 45.761 145.225 44.8756L147.061 44.1684C147.413 45.14 147.924 45.8902 148.592 46.4067C149.261 46.9232 150.014 47.1815 150.847 47.1815C151.972 47.1815 152.853 46.8371 153.497 46.1423C154.154 45.4474 154.482 44.482 154.482 43.2399H154.488ZM140.016 40.5835V26.6622H142.01V40.4114C142.01 40.7496 142.107 41.0078 142.296 41.1862C142.484 41.3645 142.709 41.4506 142.976 41.4506C143.153 41.4506 143.311 41.4198 143.456 41.3645L143.894 42.871C143.529 43.0924 143.092 43.203 142.581 43.203C142.174 43.203 141.773 43.1231 141.378 42.9571C140.983 42.7787 140.655 42.502 140.393 42.1147C140.144 41.715 140.022 41.2046 140.022 40.5897L140.016 40.5835ZM131.27 41.426C132 41.426 132.668 41.2476 133.282 40.8972C133.896 40.5405 134.382 40.0363 134.747 39.3722C135.124 38.6958 135.318 37.8903 135.318 36.9618C135.318 36.0333 135.13 35.2216 134.747 34.5698C134.382 33.9057 133.896 33.3953 133.282 33.0448C132.668 32.6944 132 32.516 131.27 32.516C130.541 32.516 129.872 32.6944 129.258 33.0448C128.645 33.3953 128.152 33.9057 127.769 34.5698C127.405 35.2216 127.222 36.0148 127.222 36.9618C127.222 37.9087 127.405 38.6958 127.769 39.3722C128.146 40.0363 128.645 40.5467 129.258 40.8972C129.872 41.2538 130.541 41.426 131.27 41.426ZM131.732 43.1969C130.711 43.1969 129.793 42.9386 128.973 42.4221C128.158 41.9056 127.575 41.2107 127.222 40.3437V41.8502C127.222 42.2192 127.113 42.5143 126.894 42.7357C126.688 42.9448 126.408 43.0432 126.043 43.0432H125.211V26.6622H127.222V33.5675C127.575 32.6944 128.146 32.0118 128.949 31.5076C129.763 31.0034 130.693 30.7574 131.726 30.7574C132.759 30.7574 133.726 31.0157 134.571 31.5322C135.434 32.0487 136.108 32.7743 136.607 33.7028C137.117 34.6313 137.372 35.7197 137.372 36.9556C137.372 38.1916 137.117 39.2861 136.607 40.2331C136.108 41.1616 135.434 41.8933 134.571 42.4221C133.726 42.9386 132.778 43.1969 131.726 43.1969H131.732ZM102.668 43.0432V30.9111H104.661V33.4999C104.85 32.9957 105.135 32.5406 105.512 32.1286C105.907 31.7167 106.363 31.3846 106.892 31.1325C107.415 30.8804 107.986 30.7574 108.6 30.7574C109.706 30.7574 110.648 31.0464 111.42 31.6183C112.21 32.1963 112.721 32.9772 112.951 33.9672C113.128 33.3461 113.419 32.7989 113.827 32.3316C114.234 31.8458 114.732 31.4584 115.316 31.1817C115.899 30.8988 116.531 30.7636 117.218 30.7636C118.646 30.7636 119.783 31.2124 120.634 32.1163C121.497 33.0018 121.922 34.2562 121.922 35.8795V43.0493H119.929V36.3407C119.929 35.1294 119.631 34.1947 119.029 33.5306C118.434 32.8542 117.644 32.5099 116.665 32.5099C115.687 32.5099 114.842 32.9034 114.216 33.6843C113.602 34.453 113.298 35.486 113.298 36.7835V43.0493H111.304V36.433C111.304 35.2093 111.007 34.2501 110.405 33.5552C109.809 32.8604 109.013 32.516 108.022 32.516C107.366 32.516 106.782 32.7005 106.272 33.0694C105.774 33.4261 105.385 33.9242 105.093 34.576C104.801 35.2093 104.655 35.9472 104.655 36.7896V43.0555H102.662L102.668 43.0432ZM92.5116 36.7589C93.095 36.7589 93.6846 36.7281 94.2863 36.6728C94.8819 36.599 95.4411 36.4822 95.9516 36.3161C96.4622 36.1563 96.8694 35.941 97.1794 35.6766C97.5015 35.3938 97.6595 35.0433 97.6595 34.6128C97.6595 34.1824 97.5258 33.8381 97.2645 33.5306C97.0153 33.2047 96.6688 32.9526 96.213 32.7804C95.7754 32.5898 95.277 32.4914 94.7239 32.4914C93.8912 32.4914 93.1437 32.6882 92.469 33.0879C91.8126 33.4691 91.2899 33.9795 90.8948 34.6128C90.4998 35.2462 90.287 35.9164 90.2627 36.6297C90.5119 36.6728 90.8341 36.7097 91.223 36.7404C91.6181 36.7527 92.0496 36.765 92.5116 36.765V36.7589ZM94.6327 43.1969C93.6967 43.1969 92.8398 43.0555 92.0496 42.7787C91.2777 42.4836 90.6031 42.0655 90.0379 41.5182C89.4726 40.9709 89.0289 40.3314 88.725 39.5936C88.4211 38.8434 88.2631 38.001 88.2631 37.0725C88.2631 36.144 88.4333 35.2954 88.7676 34.5268C89.1201 33.7581 89.582 33.094 90.1655 32.5345C90.7611 31.9565 91.4418 31.526 92.2016 31.2309C92.9735 30.9234 93.7758 30.7636 94.6084 30.7636C95.3499 30.7636 96.0307 30.8619 96.6445 31.0526C97.2584 31.2432 97.7811 31.5199 98.2187 31.8704C98.6563 32.227 98.9967 32.6329 99.2459 33.0879C99.495 33.5429 99.6166 34.0471 99.6166 34.5944C99.6166 35.363 99.4039 36.0025 98.9845 36.519C98.5591 37.0233 97.9999 37.4168 97.3009 37.712C96.602 37.9948 95.8301 38.1916 94.9792 38.3084C94.1465 38.4129 93.3078 38.4498 92.4629 38.4191C92.232 38.4191 91.9767 38.4129 91.6971 38.3945C91.4175 38.3761 91.1623 38.3637 90.9313 38.3515C90.7004 38.3207 90.5059 38.3023 90.36 38.2838C90.4451 38.8618 90.6821 39.3906 91.0589 39.8764C91.4358 40.3622 91.9342 40.7557 92.548 41.0509C93.174 41.3337 93.8669 41.469 94.6267 41.469C95.2101 41.469 95.7632 41.3645 96.292 41.1616C96.8329 40.9402 97.307 40.6696 97.7142 40.3437C98.1397 40.0178 98.48 39.6858 98.7414 39.3476L100.23 40.479C99.8536 40.9955 99.3796 41.4629 98.8083 41.8748C98.2369 42.2868 97.6048 42.6127 96.9059 42.8464C96.2069 43.0801 95.4472 43.203 94.6327 43.203V43.1969ZM81.8449 43.1969C80.9697 43.1969 80.1978 43.0493 79.5231 42.7542C78.8667 42.459 78.3258 42.0532 77.9064 41.5366C77.4992 41.0201 77.2196 40.4544 77.0737 39.8334L78.9579 39.4152C79.1037 40.0178 79.4259 40.5159 79.9182 40.8972C80.4166 41.2784 81.0487 41.4752 81.8206 41.4752C82.5924 41.4752 83.2306 41.3153 83.6378 40.9894C84.0633 40.6512 84.2699 40.2392 84.2699 39.7473C84.2699 39.2923 84.0937 38.9356 83.7472 38.6835C83.413 38.4314 82.9754 38.2285 82.4344 38.0625C81.8935 37.9026 81.3161 37.7366 80.7083 37.5767C80.1127 37.4168 79.5413 37.2077 79.0004 36.9556C78.4595 36.6912 78.0219 36.3346 77.6876 35.8918C77.3533 35.4491 77.1831 34.8588 77.1831 34.1209C77.1831 33.4876 77.3655 32.9157 77.7301 32.4176C78.0948 31.9134 78.6054 31.5199 79.2618 31.2247C79.9303 30.9173 80.7083 30.7574 81.5835 30.7574C82.4587 30.7574 83.1516 30.8988 83.7472 31.1755C84.3429 31.44 84.8291 31.8089 85.1938 32.2824C85.5706 32.7374 85.8259 33.2724 85.9596 33.875L84.0998 34.3853C83.966 33.8381 83.6986 33.383 83.2914 33.0141C82.8842 32.6452 82.2946 32.4607 81.5167 32.4607C80.7873 32.4607 80.216 32.6144 79.8088 32.928C79.4016 33.2416 79.1949 33.629 79.1949 34.1025C79.1949 34.576 79.3651 34.951 79.6994 35.2339C80.0519 35.4983 80.4895 35.7135 81.0122 35.8734C81.5531 36.0333 82.1184 36.1993 82.7201 36.3592C83.3157 36.519 83.881 36.7281 84.4037 36.9802C84.9446 37.2323 85.3822 37.5767 85.7165 38.0194C86.069 38.4498 86.2392 39.0155 86.2392 39.7227C86.2392 40.3745 86.0568 40.9648 85.6922 41.4936C85.3275 42.0101 84.817 42.4221 84.1605 42.7357C83.5041 43.0432 82.7322 43.203 81.8388 43.203L81.8449 43.1969ZM70.5582 43.1969C69.683 43.1969 68.9111 43.0493 68.2365 42.7542C67.5801 42.459 67.0391 42.0532 66.6198 41.5366C66.2125 41.0201 65.933 40.4544 65.7871 39.8334L67.6712 39.4152C67.8171 40.0178 68.1392 40.5159 68.6315 40.8972C69.1299 41.2784 69.762 41.4752 70.5339 41.4752C71.3058 41.4752 71.944 41.3153 72.3512 40.9894C72.7767 40.6512 72.9833 40.2392 72.9833 39.7473C72.9833 39.2923 72.807 38.9356 72.4606 38.6835C72.1263 38.4314 71.6887 38.2285 71.1478 38.0625C70.6068 37.9026 70.0294 37.7366 69.4217 37.5767C68.826 37.4168 68.2547 37.2077 67.7138 36.9556C67.1728 36.6912 66.7352 36.3346 66.4009 35.8918C66.0667 35.4491 65.8965 34.8588 65.8965 34.1209C65.8965 33.4876 66.0788 32.9157 66.4435 32.4176C66.8082 31.9134 67.3187 31.5199 67.9751 31.2247C68.6437 30.9173 69.4217 30.7574 70.2969 30.7574C71.1721 30.7574 71.865 30.8988 72.4606 31.1755C73.0562 31.44 73.5425 31.8089 73.9071 32.2824C74.284 32.7374 74.5392 33.2724 74.673 33.875L72.8131 34.3853C72.6794 33.8381 72.412 33.383 72.0048 33.0141C71.5975 32.6452 71.008 32.4607 70.23 32.4607C69.5007 32.4607 68.9293 32.6144 68.5221 32.928C68.1149 33.2416 67.9083 33.629 67.9083 34.1025C67.9083 34.576 68.0784 34.951 68.4127 35.2339C68.7652 35.4983 69.2029 35.7135 69.7256 35.8734C70.2665 36.0333 70.8317 36.1993 71.4334 36.3592C72.0291 36.519 72.5943 36.7281 73.117 36.9802C73.6579 37.2323 74.0956 37.5767 74.4298 38.0194C74.7824 38.4498 74.9525 39.0155 74.9525 39.7227C74.9525 40.3745 74.7702 40.9648 74.4055 41.4936C74.0409 42.0101 73.5303 42.4221 72.8739 42.7357C72.2175 43.0432 71.4456 43.203 70.5521 43.203L70.5582 43.1969ZM53.8623 37.9764H61.6724L62.1951 39.6366H53.3578L53.8623 37.9764ZM58.9798 27.7259L64.4925 43.0432H62.3713L57.3388 28.8328H58.2991L53.2666 43.0432H51.1637L56.6763 27.7259H58.9738H58.9798ZM215.078 11.4679V10.4718C215.723 10.4718 216.215 10.355 216.567 10.1151C216.932 9.86303 217.151 9.53713 217.224 9.1436C217.139 9.22968 217.029 9.29732 216.896 9.34037C216.762 9.38341 216.634 9.408 216.5 9.408C216.124 9.408 215.802 9.30962 215.54 9.119C215.279 8.90993 215.145 8.57789 215.145 8.12286C215.145 7.66783 215.291 7.32349 215.583 7.05908C215.887 6.79467 216.263 6.65939 216.701 6.65939C217.035 6.65939 217.327 6.75778 217.576 6.9484C217.838 7.12672 218.038 7.36653 218.166 7.68013C218.312 7.97528 218.385 8.28273 218.385 8.60863C218.385 9.26043 218.239 9.79539 217.947 10.2258C217.655 10.6563 217.254 10.9699 216.744 11.1789C216.245 11.3695 215.692 11.4679 215.078 11.4679ZM208.915 22.2902C208.04 22.2902 207.268 22.1426 206.594 21.8475C205.937 21.5523 205.396 21.1465 204.977 20.63C204.57 20.1135 204.29 19.5477 204.144 18.9267L206.028 18.5086C206.174 19.1112 206.496 19.6092 206.989 19.9905C207.487 20.3717 208.119 20.5685 208.891 20.5685C209.663 20.5685 210.301 20.4086 210.708 20.0827C211.134 19.7445 211.34 19.3325 211.34 18.8406C211.34 18.3856 211.164 18.0289 210.818 17.7768C210.483 17.5247 210.046 17.3218 209.505 17.1558C208.964 16.9959 208.387 16.8299 207.779 16.67C207.183 16.5101 206.612 16.3011 206.071 16.049C205.53 15.7845 205.092 15.4279 204.758 14.9852C204.424 14.5424 204.254 13.9521 204.254 13.2142C204.254 12.5809 204.436 12.009 204.801 11.511C205.165 11.0068 205.676 10.6132 206.332 10.3181C207.001 10.0106 207.779 9.85073 208.654 9.85073C209.529 9.85073 210.222 9.99216 210.818 10.2689C211.413 10.5333 211.9 10.9022 212.264 11.3757C212.641 11.8307 212.896 12.3657 213.03 12.9683L211.17 13.4787C211.036 12.9314 210.769 12.4764 210.362 12.1074C209.955 11.7385 209.365 11.554 208.587 11.554C207.858 11.554 207.286 11.7077 206.879 12.0213C206.472 12.3349 206.265 12.7223 206.265 13.1958C206.265 13.6693 206.436 14.0444 206.77 14.3272C207.122 14.5916 207.56 14.8068 208.083 14.9667C208.624 15.1266 209.189 15.2926 209.791 15.4525C210.386 15.6124 210.951 15.8214 211.474 16.0735C212.015 16.3257 212.453 16.67 212.787 17.1127C213.139 17.5432 213.31 18.1089 213.31 18.816C213.31 19.4678 213.127 20.0581 212.763 20.5869C212.398 21.1034 211.887 21.5154 211.231 21.829C210.575 22.1365 209.803 22.2964 208.909 22.2964L208.915 22.2902ZM190.809 22.1365V10.0045H192.803V12.5932C192.991 12.089 193.283 11.634 193.678 11.222C194.073 10.81 194.547 10.4779 195.1 10.2258C195.653 9.97371 196.255 9.85073 196.893 9.85073C197.841 9.85073 198.656 10.0659 199.343 10.4902C200.042 10.9022 200.583 11.4987 200.959 12.2857C201.336 13.0544 201.531 13.9521 201.531 14.9852V22.1365H199.561V15.4955C199.561 14.2719 199.258 13.3188 198.644 12.6424C198.03 11.9476 197.221 11.6032 196.212 11.6032C195.568 11.6032 194.997 11.7877 194.486 12.1566C193.976 12.5133 193.569 13.0052 193.259 13.6385C192.955 14.2719 192.797 15.0098 192.797 15.8522V22.1365H190.803H190.809ZM180.653 15.8522C181.237 15.8522 181.826 15.8214 182.428 15.7661C183.023 15.6923 183.583 15.5755 184.093 15.4095C184.604 15.2496 185.011 15.0344 185.321 14.77C185.643 14.4871 185.801 14.1366 185.801 13.7062C185.801 13.2757 185.667 12.9314 185.406 12.6239C185.157 12.298 184.81 12.0459 184.355 11.8738C183.917 11.6831 183.419 11.5848 182.865 11.5848C182.033 11.5848 181.285 11.7815 180.611 12.1812C179.954 12.5625 179.431 13.0728 179.036 13.7062C178.641 14.3395 178.429 15.0098 178.404 15.7231C178.653 15.7661 178.976 15.803 179.365 15.8337C179.76 15.846 180.191 15.8583 180.653 15.8583V15.8522ZM182.774 22.2902C181.838 22.2902 180.981 22.1488 180.191 21.8721C179.419 21.5769 178.745 21.1588 178.179 20.6115C177.608 20.0643 177.17 19.4248 176.867 18.6869C176.563 17.9367 176.405 17.0943 176.405 16.1658C176.405 15.2373 176.575 14.3887 176.909 13.6201C177.262 12.8515 177.724 12.1874 178.307 11.6278C178.903 11.0498 179.583 10.6194 180.343 10.3242C181.115 10.0168 181.917 9.85688 182.75 9.85688C183.491 9.85688 184.172 9.95527 184.786 10.1459C185.4 10.3365 185.923 10.6132 186.36 10.9637C186.798 11.3204 187.138 11.7262 187.387 12.1812C187.637 12.6362 187.758 13.1405 187.758 13.6877C187.758 14.4564 187.545 15.0958 187.126 15.6124C186.701 16.1166 186.141 16.5101 185.442 16.8053C184.744 17.0881 183.972 17.2849 183.121 17.4017C182.288 17.5063 181.449 17.5432 180.604 17.5124C180.374 17.5124 180.118 17.5063 179.839 17.4878C179.559 17.4755 179.304 17.4571 179.073 17.4448C178.842 17.414 178.647 17.3956 178.502 17.3771C178.587 17.9551 178.824 18.484 179.201 18.9697C179.577 19.4555 180.076 19.849 180.69 20.1442C181.316 20.4271 182.008 20.5623 182.768 20.5623C183.352 20.5623 183.905 20.4578 184.434 20.2549C184.975 20.0335 185.449 19.763 185.856 19.4371C186.281 19.1112 186.622 18.7791 186.883 18.4409L188.372 19.5723C187.995 20.0889 187.521 20.5562 186.95 20.9682C186.378 21.3801 185.746 21.7061 185.047 21.9397C184.348 22.1734 183.589 22.2964 182.774 22.2964V22.2902ZM174.502 11.6647L168.68 20.4762H174.545V22.1365H166.364V20.4762L172.205 11.6647H166.431V10.0045H174.502V11.6647ZM162.711 8.03677C162.286 8.03677 161.921 7.89535 161.617 7.61864C161.313 7.33578 161.155 6.99144 161.155 6.57945C161.155 6.16747 161.301 5.79853 161.593 5.51567C161.885 5.23282 162.255 5.09754 162.711 5.09754C163.137 5.09754 163.501 5.23897 163.805 5.51567C164.109 5.79853 164.267 6.14902 164.267 6.57945C164.267 7.00989 164.115 7.34193 163.805 7.61864C163.501 7.90149 163.137 8.03677 162.711 8.03677ZM161.708 22.1365V10.0045H163.702V22.1365H161.708ZM153.09 10.8715V10.0106C153.394 10.0106 153.631 9.92452 153.789 9.7462C153.965 9.56788 154.05 9.32807 154.05 9.01447V6.97914H156.086V8.66397C156.086 8.87304 156.044 9.06981 155.953 9.26043C155.867 9.43875 155.74 9.59248 155.582 9.72775C155.436 9.86303 155.254 9.95527 155.035 10.0168L153.09 10.8776V10.8715ZM156.986 22.2902C156.153 22.2902 155.454 22.0074 154.883 21.4478C154.33 20.8698 154.05 20.1258 154.05 19.2095V11.6585H152.014V9.99831H158.821V11.6585H156.062V19.271C156.062 19.6523 156.165 19.9474 156.366 20.1565C156.585 20.3656 156.846 20.4639 157.156 20.4639C157.363 20.4639 157.551 20.4271 157.727 20.3533C157.916 20.2672 158.092 20.1565 158.25 20.0212L159.259 21.417C158.937 21.7122 158.59 21.9336 158.207 22.0811C157.831 22.2164 157.417 22.2779 156.98 22.2779L156.986 22.2902ZM148.677 8.03677C148.252 8.03677 147.887 7.89535 147.583 7.61864C147.279 7.33578 147.121 6.99144 147.121 6.57945C147.121 6.16747 147.267 5.79853 147.559 5.51567C147.851 5.23282 148.221 5.09754 148.677 5.09754C149.103 5.09754 149.467 5.23897 149.771 5.51567C150.075 5.79853 150.233 6.14902 150.233 6.57945C150.233 7.00989 150.081 7.34193 149.771 7.61864C149.467 7.90149 149.103 8.03677 148.677 8.03677ZM147.668 22.1365V10.0045H149.662V22.1365H147.668ZM137.676 22.2902C136.613 22.2902 135.622 22.0996 134.698 21.7122C133.78 21.331 132.972 20.7898 132.267 20.095C131.568 19.4002 131.021 18.5762 130.626 17.617C130.249 16.6577 130.055 15.6124 130.055 14.4748C130.055 13.3372 130.243 12.2734 130.626 11.3326C131.021 10.3734 131.568 9.54943 132.267 8.85459C132.966 8.15975 133.774 7.62479 134.698 7.2374C135.622 6.85001 136.607 6.65939 137.676 6.65939C138.746 6.65939 139.785 6.85001 140.715 7.2374C141.651 7.60634 142.454 8.15975 143.122 8.89764C143.809 9.62322 144.313 10.5087 144.629 11.554L142.727 12.1505C142.32 10.9822 141.694 10.0782 140.843 9.42645C139.998 8.76236 138.947 8.43031 137.695 8.43031C136.643 8.43031 135.695 8.68242 134.85 9.18049C134.005 9.66626 133.331 10.3611 132.838 11.2589C132.358 12.1566 132.115 13.2265 132.115 14.4687C132.115 15.7108 132.358 16.7622 132.838 17.6784C133.319 18.5762 133.975 19.2772 134.808 19.7814C135.652 20.2672 136.607 20.5131 137.676 20.5131C138.831 20.5131 139.858 20.2057 140.764 19.5846C141.682 18.9636 142.368 18.1089 142.818 17.0143L144.745 17.4571C144.38 18.4778 143.845 19.3448 143.146 20.0704C142.46 20.7775 141.645 21.3248 140.697 21.706C139.761 22.0873 138.758 22.2841 137.676 22.2841V22.2902ZM118.841 19.6769V5.75549H120.835V19.5047C120.835 19.8429 120.932 20.1012 121.12 20.2795C121.309 20.4578 121.533 20.5439 121.801 20.5439C121.977 20.5439 122.135 20.5131 122.281 20.4578L122.719 21.9643C122.354 22.1857 121.916 22.2964 121.406 22.2964C120.999 22.2964 120.597 22.2164 120.202 22.0504C119.807 21.8721 119.479 21.5954 119.218 21.208C118.969 20.8083 118.847 20.2979 118.847 19.683L118.841 19.6769ZM109.396 20.5193C110.125 20.5193 110.794 20.341 111.408 19.9905C112.022 19.6338 112.508 19.1296 112.872 18.4655C113.249 17.7891 113.444 16.9836 113.444 16.0551C113.444 15.1266 113.255 14.3149 112.872 13.6631C112.508 12.999 112.022 12.4887 111.408 12.1382C110.794 11.7877 110.125 11.6094 109.396 11.6094C108.667 11.6094 107.986 11.7877 107.36 12.1382C106.746 12.4948 106.254 12.999 105.871 13.6631C105.506 14.3149 105.324 15.1081 105.324 16.0551C105.324 17.002 105.506 17.7891 105.871 18.4655C106.248 19.1296 106.746 19.64 107.36 19.9905C107.986 20.3471 108.667 20.5193 109.396 20.5193ZM108.91 22.2902C107.876 22.2902 106.928 22.0319 106.065 21.5154C105.22 20.9866 104.54 20.2549 104.029 19.3264C103.531 18.3794 103.288 17.2911 103.288 16.049C103.288 14.8068 103.537 13.7246 104.029 12.7961C104.54 11.8676 105.22 11.142 106.065 10.6255C106.928 10.109 107.876 9.85073 108.91 9.85073C109.943 9.85073 110.909 10.1028 111.712 10.6009C112.514 11.1051 113.091 11.7877 113.438 12.6608V10.0045H115.45V22.1365H114.617C114.252 22.1365 113.96 22.0319 113.742 21.829C113.535 21.6077 113.438 21.3125 113.438 20.9436V19.4371C113.073 20.3102 112.484 20.9989 111.663 21.5154C110.861 22.0319 109.943 22.2902 108.904 22.2902H108.91ZM95.3074 20.5193C96.0367 20.5193 96.7053 20.341 97.3192 19.9905C97.933 19.6338 98.4193 19.1296 98.7839 18.4655C99.1608 17.7891 99.3553 16.9836 99.3553 16.0551C99.3553 15.1266 99.1668 14.3149 98.7839 13.6631C98.4193 12.999 97.933 12.4887 97.3192 12.1382C96.7053 11.7877 96.0367 11.6094 95.3074 11.6094C94.578 11.6094 93.9095 11.7877 93.2956 12.1382C92.6817 12.4948 92.1894 12.999 91.8065 13.6631C91.4419 14.3149 91.2595 15.1081 91.2595 16.0551C91.2595 17.002 91.4419 17.7891 91.8065 18.4655C92.1834 19.1296 92.6817 19.64 93.2956 19.9905C93.9095 20.3471 94.578 20.5193 95.3074 20.5193ZM95.7693 22.2902C94.7482 22.2902 93.8305 22.0319 93.0099 21.5154C92.1955 20.9989 91.612 20.3041 91.2595 19.4371V20.9436C91.2595 21.3125 91.1501 21.6077 90.9313 21.829C90.7247 22.0381 90.4451 22.1365 90.0804 22.1365H89.2477V5.75549H91.2595V12.6608C91.612 11.7877 92.1834 11.1051 92.9856 10.6009C93.8001 10.0967 94.73 9.85073 95.7632 9.85073C96.7965 9.85073 97.7629 10.109 98.6077 10.6255C99.4707 11.142 100.145 11.8676 100.644 12.7961C101.154 13.7246 101.41 14.813 101.41 16.049C101.41 17.2849 101.154 18.3794 100.644 19.3264C100.145 20.2549 99.4707 20.9866 98.6077 21.5154C97.7629 22.0319 96.8147 22.2902 95.7632 22.2902H95.7693ZM80.4834 20.5193C81.1702 20.5193 81.8205 20.3594 82.4283 20.0335C83.0544 19.7076 83.5649 19.2218 83.96 18.57C84.355 17.906 84.5495 17.0697 84.5495 16.0674C84.5495 15.0651 84.355 14.2165 83.96 13.5647C83.5831 12.9006 83.0848 12.4087 82.4709 12.0828C81.857 11.7569 81.2067 11.5971 80.526 11.5971C79.8452 11.5971 79.1706 11.7569 78.5567 12.0828C77.9611 12.4087 77.4688 12.9006 77.092 13.5647C76.7151 14.2165 76.5206 15.0467 76.5206 16.0674C76.5206 17.0881 76.703 17.906 77.0676 18.57C77.4445 19.2218 77.9368 19.7076 78.5324 20.0335C79.1281 20.3594 79.7784 20.5193 80.4773 20.5193H80.4834ZM80.4834 22.2902C79.3468 22.2902 78.3258 22.0381 77.4202 21.54C76.5146 21.0235 75.8034 20.2979 75.2747 19.3694C74.752 18.4225 74.4845 17.3279 74.4845 16.0735C74.4845 14.8191 74.752 13.6816 75.2929 12.7531C75.8338 11.8246 76.5632 11.1051 77.4809 10.6071C78.3987 10.1028 79.4198 9.85688 80.5442 9.85688C81.6686 9.85688 82.7018 10.109 83.6075 10.6071C84.5252 11.1113 85.2546 11.8246 85.7955 12.7531C86.3364 13.6816 86.6039 14.7884 86.6039 16.0735C86.6039 17.3587 86.3243 18.4286 85.7712 19.3694C85.2302 20.2979 84.4948 21.0235 83.5588 21.54C82.6411 22.0442 81.6139 22.2902 80.4713 22.2902H80.4834ZM69.0995 19.6769V5.75549H71.0931V19.5047C71.0931 19.8429 71.1903 20.1012 71.3787 20.2795C71.5672 20.4578 71.792 20.5439 72.0595 20.5439C72.2357 20.5439 72.3937 20.5131 72.5396 20.4578L72.9772 21.9643C72.6125 22.1857 72.1749 22.2964 71.6644 22.2964C71.2572 22.2964 70.856 22.2164 70.461 22.0504C70.0659 21.8721 69.7377 21.5954 69.4764 21.208C69.2272 20.8083 69.1056 20.2979 69.1056 19.683L69.0995 19.6769ZM63.8361 11.843C63.6902 11.431 63.4714 11.0252 63.1797 10.6255C62.9001 10.2135 62.5536 9.84458 62.1282 9.51869C61.721 9.19279 61.253 8.93453 60.7303 8.74391C60.2197 8.53484 59.6484 8.43646 59.0224 8.43646C57.9588 8.43646 57.0045 8.68857 56.1536 9.18664C55.3027 9.68471 54.6463 10.3918 54.1601 11.2896C53.6799 12.1874 53.4368 13.2511 53.4368 14.4748C53.4368 15.6985 53.6678 16.7376 54.1358 17.6415C54.6038 18.5393 55.2602 19.2526 56.105 19.7691C56.9681 20.2733 57.9527 20.5193 59.0589 20.5193C59.8186 20.5193 60.4932 20.3656 61.0949 20.052C61.7088 19.7261 62.2315 19.3141 62.6691 18.8099C63.1189 18.2933 63.4714 17.7338 63.7206 17.125C63.9819 16.5224 64.1339 15.9444 64.1825 15.3972H58.4511V13.7123H66.4617V22.1242H64.6019V17.2296L64.845 17.1619C64.8025 17.4448 64.6931 17.7953 64.5168 18.2257C64.3588 18.6561 64.1217 19.105 63.8178 19.5785C63.514 20.052 63.125 20.4947 62.657 20.9067C62.2072 21.3064 61.6723 21.6384 61.0585 21.9028C60.4446 22.1549 59.7457 22.2779 58.9555 22.2779C57.9041 22.2779 56.9194 22.0873 56.0017 21.6999C55.0961 21.3187 54.2938 20.7775 53.5948 20.0827C52.908 19.3879 52.3671 18.5639 51.9781 17.6047C51.5831 16.6454 51.3886 15.6001 51.3886 14.4625C51.3886 13.3249 51.577 12.2612 51.9599 11.3204C52.3367 10.3611 52.8716 9.53713 53.5584 8.84229C54.2452 8.13516 55.0535 7.59404 55.9895 7.2251C56.9255 6.84386 57.9466 6.64709 59.0528 6.64709C60.6452 6.64709 62.037 7.04063 63.2344 7.82156C64.4317 8.60248 65.3008 9.69701 65.8357 11.099L63.8422 11.8307L63.8361 11.843Z" fill="#fff"></path>
  </g>
  <defs>
    <clipPath id="clip0_2504_303">
      <rect width="218.385" height="51" fill="white"></rect>
    </clipPath>
    <clipPath id="clip1_2504_303">
      <rect width="40.5385" height="40.5385" fill="white" transform="translate(6.53846 5.23077)"></rect>
    </clipPath>
  </defs>
</svg>
